<?xml version="1.0" encoding="UTF-8" standalone="no"?>
<!-- Created with Inkscape (http://www.inkscape.org/) -->

<svg
   xmlns:dc="http://purl.org/dc/elements/1.1/"
   xmlns:cc="http://creativecommons.org/ns#"
   xmlns:rdf="http://www.w3.org/1999/02/22-rdf-syntax-ns#"
   xmlns:svg="http://www.w3.org/2000/svg"
   xmlns="http://www.w3.org/2000/svg"
   xmlns:sodipodi="http://sodipodi.sourceforge.net/DTD/sodipodi-0.dtd"
   xmlns:inkscape="http://www.inkscape.org/namespaces/inkscape"
   width="512.50836"
   height="177.84375"
   viewBox="0 0 43.617733 15.135638"
   version="1.1"
   id="SVGRoot"
   sodipodi:docname="justj_title.svg"
   inkscape:export-xdpi="192"
   inkscape:export-ydpi="192"
   inkscape:version="0.92.4 (5da689c313, 2019-01-14)">
  <defs
     id="defs1978">
    <linearGradient
       id="SVGID_1_"
       gradientUnits="userSpaceOnUse"
       x1="131.3853"
       y1="358.5762"
       x2="131.3853"
       y2="432.21109"
       gradientTransform="matrix(1,0,0,-1,0,793)">
      <stop
         offset="0.3033"
         style="stop-color:#473788"
         id="stop32" />
      <stop
         offset="0.872"
         style="stop-color:#2C2255"
         id="stop34" />
    </linearGradient>
    <linearGradient
       id="SVGID_2_"
       gradientUnits="userSpaceOnUse"
       x1="131.3853"
       y1="358.5752"
       x2="131.3853"
       y2="432.21011"
       gradientTransform="matrix(1,0,0,-1,0,793)">
      <stop
         offset="0.3033"
         style="stop-color:#473788"
         id="stop39" />
      <stop
         offset="0.872"
         style="stop-color:#2C2255"
         id="stop41" />
    </linearGradient>
    <linearGradient
       id="SVGID_3_"
       gradientUnits="userSpaceOnUse"
       x1="131.3853"
       y1="358.57709"
       x2="131.3853"
       y2="432.2084"
       gradientTransform="matrix(1,0,0,-1,0,793)">
      <stop
         offset="0.3033"
         style="stop-color:#473788"
         id="stop46" />
      <stop
         offset="0.8631"
         style="stop-color:#2C2255"
         id="stop48" />
    </linearGradient>
  </defs>
  <sodipodi:namedview
     id="base"
     pagecolor="#ffffff"
     bordercolor="#666666"
     borderopacity="1.0"
     inkscape:pageopacity="0.0"
     inkscape:pageshadow="2"
     inkscape:zoom="2"
     inkscape:cx="-24.623552"
     inkscape:cy="107.46565"
     inkscape:document-units="px"
     inkscape:current-layer="text856"
     showgrid="false"
     inkscape:window-width="3840"
     inkscape:window-height="2133"
     inkscape:window-x="2551"
     inkscape:window-y="-9"
     inkscape:window-maximized="1"
     inkscape:grid-bbox="true"
     showguides="false"
     fit-margin-top="0"
     fit-margin-left="0"
     fit-margin-right="0"
     fit-margin-bottom="0">
    <inkscape:grid
       type="xygrid"
       id="grid2674"
       originx="-0.87694653"
       originy="-0.47606399" />
  </sodipodi:namedview>
  <metadata
     id="metadata1981">
    <rdf:RDF>
      <cc:Work
         rdf:about="">
        <dc:format>image/svg+xml</dc:format>
        <dc:type
           rdf:resource="http://purl.org/dc/dcmitype/StillImage" />
        <dc:title></dc:title>
      </cc:Work>
    </rdf:RDF>
  </metadata>
  <g
     inkscape:label="Layer 1"
     inkscape:groupmode="layer"
     id="layer1"
     transform="translate(-0.87694653,-0.38829741)">
    <path
       inkscape:connector-curvature="0"
       style="fill:#2c2255;stroke-width:0.13316308"
       d="M 4.7639952,9.933964 H 2.5984013 c 0.2867372,1.042675 0.8188232,1.977175 1.5978119,2.803089 1.2418797,1.316608 2.7351877,1.974021 4.4814751,1.974021 0.3490777,0 0.6872898,-0.02757 1.0158017,-0.08007 1.315343,-0.21045 2.466945,-0.840854 3.453647,-1.893949 0.784032,-0.82564 1.319869,-1.760414 1.608804,-2.803089 h -0.878834 -1.285079 z"
       id="path2" />
    <g
       transform="matrix(0.12933554,0,0,0.13710388,-8.3149303,-43.939088)"
       id="g8">
      <path
         d="m 91.891,370.194 h -8.747 c -0.32,1.922 -0.538,3.884 -0.637,5.896 h 10.396 5.215 75.275 6.871 c -0.1,-2.012 -0.318,-3.974 -0.641,-5.896"
         id="path4"
         inkscape:connector-curvature="0"
         style="fill:#2c2255" />
      <path
         d="m 82.507,381.565 c 0.099,2.013 0.316,3.975 0.637,5.896 h 9.094 6.893 73.648 6.846 c 0.322,-1.921 0.542,-3.883 0.642,-5.896"
         id="path6"
         inkscape:connector-curvature="0"
         style="fill:#2c2255" />
    </g>
    <path
       inkscape:connector-curvature="0"
       style="fill:#2c2255;stroke-width:0.13316308"
       d="M 14.7562,6.0651657 C 14.467523,5.0196117 13.931556,4.0807244 13.147137,3.2490524 12.163023,2.2058293 11.014652,1.5799499 9.7035786,1.3693588 9.3719621,1.3160277 9.0303864,1.2880562 8.6776883,1.2880562 c -1.7462874,0 -3.239725,0.6538476 -4.4814751,1.9609962 C 3.4169666,4.0807244 2.8846205,5.0196117 2.598014,6.0651657"
       id="path10" />
    <g
       transform="matrix(0.12933554,0,0,0.13710388,-8.3149303,-43.939088)"
       id="g14">
      <path
         d="m 79.6,378.829 c 0,-25.824 19.395,-47.281 44.626,-51.055 -0.626,-0.023 -1.255,-0.048 -1.887,-0.048 -28.314,0 -51.269,22.88 -51.269,51.103 0,28.224 22.954,51.103 51.269,51.103 0.634,0 1.263,-0.024 1.891,-0.047 C 98.995,426.111 79.6,404.654 79.6,378.829 Z"
         id="path12"
         inkscape:connector-curvature="0"
         style="fill:#f7941e" />
    </g>
    <g
       transform="matrix(0.12933554,0,0,0.13710388,-8.3149303,-43.939088)"
       id="g53">
      <linearGradient
         id="linearGradient4675"
         gradientUnits="userSpaceOnUse"
         x1="131.3853"
         y1="358.5762"
         x2="131.3853"
         y2="432.21109"
         gradientTransform="matrix(1,0,0,-1,0,793)">
        <stop
           offset="0.3033"
           style="stop-color:#473788"
           id="stop4671" />
        <stop
           offset="0.872"
           style="stop-color:#2C2255"
           id="stop4673" />
      </linearGradient>
      <path
         d="m 164.653,376.089 c -0.164,-2.021 -0.504,-3.992 -1.012,-5.896 h -64.51 c -0.508,1.903 -0.849,3.874 -1.013,5.896 z"
         id="path37"
         inkscape:connector-curvature="0"
         style="fill:url(#SVGID_1_)" />
      <linearGradient
         id="linearGradient4682"
         gradientUnits="userSpaceOnUse"
         x1="131.3853"
         y1="358.5752"
         x2="131.3853"
         y2="432.21011"
         gradientTransform="matrix(1,0,0,-1,0,793)">
        <stop
           offset="0.3033"
           style="stop-color:#473788"
           id="stop4678" />
        <stop
           offset="0.872"
           style="stop-color:#2C2255"
           id="stop4680" />
      </linearGradient>
      <path
         d="M 164.653,381.565 H 98.119 c 0.164,2.021 0.503,3.992 1.012,5.896 h 64.511 c 0.508,-1.904 0.847,-3.875 1.011,-5.896 z"
         id="path44"
         inkscape:connector-curvature="0"
         style="fill:url(#SVGID_2_)" />
      <linearGradient
         id="linearGradient4689"
         gradientUnits="userSpaceOnUse"
         x1="131.3853"
         y1="358.57709"
         x2="131.3853"
         y2="432.2084"
         gradientTransform="matrix(1,0,0,-1,0,793)">
        <stop
           offset="0.3033"
           style="stop-color:#473788"
           id="stop4685" />
        <stop
           offset="0.8631"
           style="stop-color:#2C2255"
           id="stop4687" />
      </linearGradient>
      <path
         d="m 131.386,412.217 c 13.397,0 24.945,-7.893 30.263,-19.281 h -60.526 c 5.318,11.388 16.866,19.281 30.263,19.281 z"
         id="path51"
         inkscape:connector-curvature="0"
         style="fill:url(#SVGID_3_)" />
    </g>
    <g
       transform="matrix(0.12933554,0,0,0.13710388,-8.3149303,-43.939088)"
       id="g61">
      <path
         d="m 93.188,381.565 h 4.884 66.706 8.763 6.657 c 0.046,-0.871 0.072,-1.748 0.072,-2.631 0,-0.955 -0.035,-1.902 -0.089,-2.845 H 173.54 164.777 98.071 92.842 82.507 c -0.054,0.942 -0.089,1.89 -0.089,2.845 0,0.883 0.026,1.76 0.072,2.631 z"
         id="path55"
         inkscape:connector-curvature="0"
         style="fill:#ffffff" />
      <path
         d="M 100.928,364.718 H 84.376 c -0.544,1.783 -0.895,3.612 -1.232,5.476 h 8.525 7.259 64.679 9.16 6.547 c -0.338,-1.863 -0.773,-3.692 -1.316,-5.476"
         id="path57"
         inkscape:connector-curvature="0"
         style="fill:#ffffff" />
      <path
         d="m 173.026,387.46 h -9.16 -64.678 -6.912 -9.133 c 0.328,1.863 0.701,3.691 1.236,5.476 h 16.807 60.682 9.962 6.488 c 0.534,-1.784 0.965,-3.612 1.294,-5.476 z"
         id="path59"
         inkscape:connector-curvature="0"
         style="fill:#ffffff" />
    </g>
    <text
       xml:space="preserve"
       style="font-style:normal;font-variant:normal;font-weight:bold;font-stretch:normal;font-size:13.25182438px;line-height:1.25;font-family:Arial;-inkscape-font-specification:'Arial, Bold';font-variant-ligatures:normal;font-variant-caps:normal;font-variant-numeric:normal;font-feature-settings:normal;text-align:start;letter-spacing:0px;word-spacing:0px;writing-mode:lr-tb;text-anchor:start;fill:#f7941e;fill-opacity:1;stroke:none;stroke-width:1.24235833"
       x="6.4030733"
       y="11.958858"
       id="text2678"
       transform="matrix(1.1028329,-0.02548982,0,0.90675566,0,0)"><tspan
         sodipodi:role="line"
         id="tspan2676"
         x="6.4030733"
         y="11.958858"
         style="stroke-width:1.24235833">j</tspan></text>
    <flowRoot
       xml:space="preserve"
       id="flowRoot2680"
       style="font-style:normal;font-weight:normal;font-size:10.66666698px;line-height:1.25;font-family:sans-serif;letter-spacing:0px;word-spacing:0px;fill:#000000;fill-opacity:1;stroke:none"><flowRegion
         id="flowRegion2682"><rect
           id="rect2684"
           width="4"
           height="11"
           x="7"
           y="5" /></flowRegion><flowPara
         id="flowPara2686" /></flowRoot>    <rect
       style="fill:#2f255b;fill-opacity:1;fill-rule:evenodd;stroke-width:0.5637545"
       id="rect2688"
       width="0.31781915"
       height="4"
       x="7.75"
       y="5.9773932" />
    <rect
       style="fill:#2f255b;fill-opacity:1;fill-rule:evenodd;stroke-width:0.57195079"
       id="rect2688-7"
       width="0.32712767"
       height="4"
       x="10.073138"
       y="5.9521275" />
    <g
       aria-label="justj"
       style="font-style:normal;font-weight:normal;font-size:0.90780139px;line-height:1.25;font-family:sans-serif;letter-spacing:0px;word-spacing:0px;fill:#2c2255;fill-opacity:1;stroke:none;stroke-width:0.08510638"
       id="text856">
      <path
         d="M 17.622341,2.0558506 V 0.38829741 h 1.43617 V 2.0558506 Z M 15.803192,15.37234 16.074469,14.151595 q 0.430851,0.111702 0.678191,0.111702 0.43883,0 0.654256,-0.295212 0.215425,-0.287234 0.215425,-1.452128 V 3.6117017 h 1.43617 v 8.9361703 q 0,1.56383 -0.406915,2.178191 -0.518617,0.797873 -1.723404,0.797873 -0.582447,0 -1.125,-0.151596 z"
         style="font-style:normal;font-variant:normal;font-weight:normal;font-stretch:normal;font-size:16.34042549px;font-family:Arial;-inkscape-font-specification:'Arial, Normal';font-variant-ligatures:normal;font-variant-caps:normal;font-variant-numeric:normal;font-feature-settings:normal;text-align:start;writing-mode:lr-tb;text-anchor:start;fill:#2c2255;fill-opacity:1;stroke-width:0.08510638"
         id="path1178"
         inkscape:connector-curvature="0" />
      <path
         d="m 26.821809,12.085106 v -1.244681 q -0.989362,1.43617 -2.68883,1.43617 -0.75,0 -1.404255,-0.287234 -0.646277,-0.287234 -0.965426,-0.718085 -0.31117,-0.43883 -0.438829,-1.069149 -0.08777,-0.4228722 -0.08777,-1.3404254 V 3.6117017 h 1.43617 v 4.699468 q 0,1.125 0.08777,1.5159575 0.135638,0.5664898 0.574468,0.8936168 0.43883,0.319149 1.085106,0.319149 0.646277,0 1.212766,-0.327128 0.56649,-0.335106 0.797873,-0.9015953 0.239361,-0.5744681 0.239361,-1.6595744 V 3.6117017 h 1.436171 v 8.4734043 z"
         style="font-style:normal;font-variant:normal;font-weight:normal;font-stretch:normal;font-size:16.34042549px;font-family:Arial;-inkscape-font-specification:'Arial, Normal';font-variant-ligatures:normal;font-variant-caps:normal;font-variant-numeric:normal;font-feature-settings:normal;text-align:start;writing-mode:lr-tb;text-anchor:start;fill:#2c2255;fill-opacity:1;stroke-width:0.08510638"
         id="path1180"
         inkscape:connector-curvature="0" />
      <path
         d="m 29.789895,9.5558506 1.420213,-0.2234043 q 0.11968,0.8537237 0.662234,1.3085107 0.550532,0.454787 1.531915,0.454787 0.989361,0 1.468085,-0.398936 0.478723,-0.406915 0.478723,-0.9494681 0,-0.4867021 -0.422872,-0.7659574 Q 34.63298,8.7898931 33.460108,8.4946804 31.88032,8.0957442 31.265959,7.8085102 30.659576,7.5132974 30.340427,7.0026591 q -0.31117,-0.518617 -0.31117,-1.1409574 0,-0.5664894 0.255319,-1.0452128 0.263298,-0.4867021 0.710106,-0.8058511 0.335106,-0.2473404 0.909575,-0.4148936 0.582446,-0.1755319 1.24468,-0.1755319 0.997341,0 1.747341,0.287234 0.757979,0.2872341 1.117021,0.7819149 0.359043,0.4867022 0.494681,1.3085107 L 35.103725,5.9893612 Q 35.00798,5.3351059 34.545214,4.9680846 34.090427,4.6010634 33.252661,4.6010634 q -0.989362,0 -1.412234,0.3271276 -0.422873,0.3271277 -0.422873,0.7659575 0,0.2792553 0.175532,0.5026595 0.175532,0.231383 0.550532,0.3829788 0.215426,0.079787 1.268617,0.3670212 1.523936,0.4069149 2.122341,0.6702128 0.606383,0.2553191 0.949468,0.75 0.343085,0.4946808 0.343085,1.2287234 0,0.7180848 -0.422872,1.3563828 -0.414894,0.630319 -1.204788,0.981383 -0.789893,0.343085 -1.787234,0.343085 -1.651595,0 -2.521276,-0.68617 -0.861702,-0.68617 -1.101064,-2.0345744 z"
         style="font-style:normal;font-variant:normal;font-weight:normal;font-stretch:normal;font-size:16.34042549px;font-family:Arial;-inkscape-font-specification:'Arial, Normal';font-variant-ligatures:normal;font-variant-caps:normal;font-variant-numeric:normal;font-feature-settings:normal;text-align:start;writing-mode:lr-tb;text-anchor:start;fill:#2c2255;fill-opacity:1;stroke-width:0.08510638"
         id="path1182"
         inkscape:connector-curvature="0" />
      <path
         d="m 41.670213,10.800531 0.207447,1.268617 q -0.606383,0.12766 -1.085107,0.12766 -0.781914,0 -1.212766,-0.24734 -0.430851,-0.247341 -0.606383,-0.646277 -0.175531,-0.406915 -0.175531,-1.6994681 v -4.875 H 37.744681 V 3.6117017 h 1.053192 V 1.5132974 L 40.226064,0.65159529 V 3.6117017 h 1.444149 v 1.1170212 h -1.444149 v 4.9547873 q 0,0.6143618 0.07181,0.7898938 0.07979,0.175532 0.24734,0.279255 0.175532,0.103723 0.494681,0.103723 0.239362,0 0.630319,-0.05585 z"
         style="font-style:normal;font-variant:normal;font-weight:normal;font-stretch:normal;font-size:16.34042549px;font-family:Arial;-inkscape-font-specification:'Arial, Normal';font-variant-ligatures:normal;font-variant-caps:normal;font-variant-numeric:normal;font-feature-settings:normal;text-align:start;writing-mode:lr-tb;text-anchor:start;fill:#2c2255;fill-opacity:1;stroke-width:0.08510638"
         id="path1184"
         inkscape:connector-curvature="0" />
      <path
         d="M 43.058512,2.0558506 V 0.38829741 h 1.43617 V 2.0558506 Z M 41.239363,15.37234 41.510639,14.151595 q 0.430851,0.111702 0.678192,0.111702 0.43883,0 0.654255,-0.295212 0.215426,-0.287234 0.215426,-1.452128 V 3.6117017 h 1.43617 v 8.9361703 q 0,1.56383 -0.406915,2.178191 -0.518617,0.797873 -1.723404,0.797873 -0.582447,0 -1.125,-0.151596 z"
         style="font-style:normal;font-variant:normal;font-weight:normal;font-stretch:normal;font-size:16.34042549px;font-family:Arial;-inkscape-font-specification:'Arial, Normal';font-variant-ligatures:normal;font-variant-caps:normal;font-variant-numeric:normal;font-feature-settings:normal;text-align:start;writing-mode:lr-tb;text-anchor:start;fill:#f7941e;fill-opacity:1;stroke-width:0.08510638"
         id="path1186"
         inkscape:connector-curvature="0" />
      <rect
         style="fill:#f7941e;fill-opacity:1;fill-rule:evenodd;stroke-width:0.0072431"
         id="rect1189"
         width="1.43617"
         height="1.6675532"
         x="17.622339"
         y="0.38829741" />
      <rect
         style="fill:#2c2255;fill-opacity:1;fill-rule:evenodd;stroke-width:0.0072431"
         id="rect1191"
         width="1.43617"
         height="1.6675532"
         x="43.05851"
         y="0.38829741" />
    </g>
  </g>
</svg>
